<?xml version="1.0" encoding="UTF-8" standalone="no"?>
<!-- Created with Inkscape (http://www.inkscape.org/) -->

<svg
   width="2528.365mm"
   height="720mm"
   viewBox="0 0 2528.365 720"
   version="1.1"
   id="svg1"
   xml:space="preserve"
   xmlns="http://www.w3.org/2000/svg"
   xmlns:svg="http://www.w3.org/2000/svg"><defs
     id="defs1" /><g
     id="layer1"><g
       style="fill:#ffffff"
       id="g1"
       transform="matrix(0.94736842,0,0,0.94736842,-75.789474,791.05263)"><path
         d="m 180,-475 q -42,0 -71,-29 -29,-29 -29,-71 0,-42 29,-71 29,-29 71,-29 42,0 71,29 29,29 29,71 0,42 -29,71 -29,29 -71,29 z m 180,-160 q -42,0 -71,-29 -29,-29 -29,-71 0,-42 29,-71 29,-29 71,-29 42,0 71,29 29,29 29,71 0,42 -29,71 -29,29 -71,29 z m 240,0 q -42,0 -71,-29 -29,-29 -29,-71 0,-42 29,-71 29,-29 71,-29 42,0 71,29 29,29 29,71 0,42 -29,71 -29,29 -71,29 z m 180,160 q -42,0 -71,-29 -29,-29 -29,-71 0,-42 29,-71 29,-29 71,-29 42,0 71,29 29,29 29,71 0,42 -29,71 -29,29 -71,29 z M 266,-75 q -45,0 -75.5,-34.5 Q 160,-144 160,-191 q 0,-52 35.5,-91 35.5,-39 70.5,-77 29,-31 50,-67.5 21,-36.5 50,-68.5 22,-26 51,-43 29,-17 63,-17 34,0 63,16 29,16 51,42 28,32 49.5,69 21.5,37 50.5,69 35,38 70.5,77 35.5,39 35.5,91 0,47 -30.5,81.5 Q 739,-75 694,-75 q -54,0 -107,-9 -53,-9 -107,-9 -54,0 -107,9 -53,9 -107,9 z"
         id="path1" /></g><path
       style="font-weight:600;font-size:529.167px;font-family:Quicksand;-inkscape-font-specification:'Quicksand, Semi-Bold';fill:#ffffff;stroke-width:0.264583"
       d="m 1078.9767,171.30222 q 28.0458,0 51.8583,15.34584 23.8125,14.81668 38.1,40.74586 14.2876,25.92919 14.2876,58.20837 0,32.27919 -14.2876,58.73754 -14.2875,25.92918 -38.1,41.80419 -23.8125,15.34584 -51.8583,15.34584 H 976.84743 l 4.23333,-8.46667 V 514.7316 q 0,11.64167 -7.40834,19.57918 -6.87917,7.40834 -18.52084,7.40834 -11.11251,0 -18.52084,-7.40834 -6.87918,-7.93751 -6.87918,-19.57918 V 198.28974 q 0,-11.64168 7.93751,-19.05001 7.9375,-7.93751 19.05001,-7.93751 z m 0,179.38761 q 13.7583,0 24.8708,-8.99584 11.6417,-8.99584 18.5208,-23.81251 7.4084,-14.81668 7.4084,-32.27919 0,-17.46251 -7.4084,-31.75002 -6.8791,-14.28751 -18.5208,-22.75418 -11.1125,-8.99584 -24.8708,-8.99584 H 975.78909 l 5.29167,-7.9375 V 357.569 l -4.7625,-6.87917 z m 367.7714,-87.31255 q 11.1125,0 18.5208,7.9375 7.9375,7.40834 7.9375,19.05001 v 139.17092 q 0,55.03337 -30.6917,86.25422 -30.6917,30.69169 -86.7834,30.69169 -55.5625,0 -86.2542,-30.69169 -30.1625,-31.22085 -30.1625,-86.25422 V 290.36479 q 0,-11.64167 7.4083,-19.05001 7.4084,-7.9375 19.0501,-7.9375 11.1125,0 18.5208,7.9375 7.9375,7.40834 7.9375,19.05001 v 139.17092 q 0,34.39586 15.875,51.3292 16.4042,16.93335 47.625,16.93335 31.7501,0 48.1542,-16.93335 16.4042,-16.93334 16.4042,-51.3292 V 290.36479 q 0,-11.64167 7.4084,-19.05001 7.4083,-7.9375 19.05,-7.9375 z m 240.2415,-4.7625 q 37.0417,0 65.6167,18.52084 29.1042,18.52084 46.0375,50.80003 16.9333,31.75002 16.9333,74.08338 0,42.33336 -16.9333,75.14171 -16.9333,32.27919 -45.5084,50.80003 -28.575,18.52085 -64.5583,18.52085 -20.1084,0 -38.1001,-6.35 -17.9916,-6.35001 -31.75,-16.40418 -13.7583,-10.58334 -22.7542,-22.22502 -8.4666,-11.64167 -10.5833,-21.69584 l 14.2875,-6.87917 V 620.565 q 0,11.64167 -7.9375,19.05001 -7.4083,7.9375 -18.5208,7.9375 -11.6417,0 -19.05,-7.9375 -7.4084,-7.40834 -7.4084,-19.05001 V 289.30646 q 0,-11.11251 7.4084,-19.05001 7.4083,-7.93751 19.05,-7.93751 11.1125,0 18.5208,7.93751 7.9375,7.9375 7.9375,19.05001 v 36.51252 l -8.4667,-4.7625 q 1.5875,-10.05417 10.0542,-20.63751 8.4667,-11.11251 21.1667,-20.63751 13.2292,-9.52501 29.6333,-15.34585 16.9334,-5.82083 34.9251,-5.82083 z m -5.8209,48.68336 q -25.4,0 -44.45,12.70001 -18.5208,12.17084 -29.1042,33.33752 -10.5833,21.16668 -10.5833,48.68336 0,26.98752 10.5833,49.21253 10.5834,21.69585 29.1042,34.39586 19.05,12.17084 44.45,12.17084 24.8709,0 43.3917,-12.17084 18.5209,-12.70001 29.1042,-34.39586 11.1125,-22.22501 11.1125,-49.21253 0,-26.98752 -11.1125,-48.1542 -10.5833,-21.69584 -29.1042,-33.86668 -18.5208,-12.70001 -43.3917,-12.70001 z m 537.6338,49.21253 q 0,40.21669 -13.2292,75.14171 -13.2292,34.39586 -37.5708,60.32504 -23.8126,25.92918 -56.6209,40.74586 -32.8084,14.28751 -71.9667,14.28751 -38.6292,0 -71.4376,-14.28751 -32.8083,-14.81668 -57.15,-40.74586 -23.8125,-25.92918 -37.0417,-60.32504 -12.7,-34.92502 -12.7,-75.14171 0,-40.21669 12.7,-74.61255 13.2292,-34.92502 37.0417,-60.8542 24.3417,-25.92918 57.15,-40.21669 32.8084,-14.81668 71.4376,-14.81668 39.1583,0 71.9667,14.81668 32.8083,14.28751 56.6209,40.21669 24.3416,25.92918 37.5708,60.8542 13.2292,34.39586 13.2292,74.61255 z m -57.15,0 q 0,-39.15836 -15.8751,-70.37921 -15.3458,-31.22085 -42.8625,-49.21253 -27.5167,-17.99168 -63.5,-17.99168 -35.4542,0 -62.9709,17.99168 -27.5167,17.99168 -42.8625,49.21253 -15.3459,30.69168 -15.3459,70.37921 0,39.15836 15.3459,70.37921 15.3458,31.22085 42.8625,49.21253 27.5167,17.99168 62.9709,17.99168 35.9833,0 63.5,-17.99168 27.5167,-17.99168 42.8625,-49.21253 15.8751,-31.22085 15.8751,-70.37921 z m 236.0083,190.50012 q -38.1,0 -67.7334,-10.58334 -29.6334,-10.58334 -56.6209,-34.92503 -5.8208,-4.23333 -8.9958,-10.05417 -2.6458,-6.35 -2.6458,-12.70001 0,-10.05417 7.4083,-17.99167 7.4083,-7.93751 18.5208,-7.93751 8.4667,0 15.875,5.82084 20.1084,18.52084 41.8042,28.04585 22.2251,9.525 51.8584,9.525 21.1667,0 38.6292,-6.87917 17.9917,-6.87917 28.575,-18.52084 10.5834,-11.64167 10.5834,-26.98752 0,-19.05001 -11.1126,-31.22085 -10.5833,-12.70001 -31.2208,-20.63751 -20.1084,-8.46667 -48.6834,-14.28751 -26.4583,-4.7625 -47.625,-13.22918 -20.6375,-8.46667 -35.4542,-21.16668 -14.8167,-13.22917 -22.7542,-31.22085 -7.9375,-17.99168 -7.9375,-41.80419 0,-32.27919 16.9334,-55.56253 16.9333,-23.28335 46.0375,-35.98336 29.1042,-12.70001 65.6167,-12.70001 33.3375,0 62.4417,10.58334 29.1042,10.05417 47.0959,27.51669 12.7,11.1125 12.7,23.81251 0,9.52501 -7.9375,17.99168 -7.4084,7.9375 -17.4625,7.9375 -7.4084,0 -12.7,-4.23333 -8.4667,-8.99584 -22.7542,-15.87501 -14.2875,-7.40834 -30.6917,-12.17084 -15.875,-4.76251 -30.6917,-4.76251 -23.8125,0 -40.7459,6.87917 -16.9333,6.35001 -25.9291,17.99168 -8.9959,11.11251 -8.9959,26.45835 0,17.99168 10.0542,29.63335 10.5833,11.64168 29.1042,19.05001 18.5208,6.87918 42.3333,12.70001 29.1042,6.35001 51.8584,14.28751 23.2834,7.93751 39.1584,20.63751 15.875,12.17084 24.3416,30.69169 8.4667,18.52084 8.4667,46.03753 0,31.75002 -17.9917,55.56253 -17.9916,23.81252 -47.625,37.04169 -29.1042,13.22918 -65.0875,13.22918 z"
       id="text1"
       aria-label="PupOS" /></g></svg>
