<?xml version="1.0" encoding="UTF-8" standalone="no"?>
<!-- Created with Inkscape (http://www.inkscape.org/) -->

<svg
   width="2674.0869mm"
   height="720mm"
   viewBox="0 0 2674.0869 720"
   version="1.1"
   id="svg1"
   xml:space="preserve"
   xmlns="http://www.w3.org/2000/svg"
   xmlns:svg="http://www.w3.org/2000/svg"><defs
     id="defs1" /><g
     id="layer1"><g
       style="fill:#ffffff"
       id="g1"
       transform="matrix(0.94736842,0,0,0.94736842,-75.789474,791.05263)"><path
         d="m 180,-475 q -42,0 -71,-29 -29,-29 -29,-71 0,-42 29,-71 29,-29 71,-29 42,0 71,29 29,29 29,71 0,42 -29,71 -29,29 -71,29 z m 180,-160 q -42,0 -71,-29 -29,-29 -29,-71 0,-42 29,-71 29,-29 71,-29 42,0 71,29 29,29 29,71 0,42 -29,71 -29,29 -71,29 z m 240,0 q -42,0 -71,-29 -29,-29 -29,-71 0,-42 29,-71 29,-29 71,-29 42,0 71,29 29,29 29,71 0,42 -29,71 -29,29 -71,29 z m 180,160 q -42,0 -71,-29 -29,-29 -29,-71 0,-42 29,-71 29,-29 71,-29 42,0 71,29 29,29 29,71 0,42 -29,71 -29,29 -71,29 z M 266,-75 q -45,0 -75.5,-34.5 Q 160,-144 160,-191 q 0,-52 35.5,-91 35.5,-39 70.5,-77 29,-31 50,-67.5 21,-36.5 50,-68.5 22,-26 51,-43 29,-17 63,-17 34,0 63,16 29,16 51,42 28,32 49.5,69 21.5,37 50.5,69 35,38 70.5,77 35.5,39 35.5,91 0,47 -30.5,81.5 Q 739,-75 694,-75 q -54,0 -107,-9 -53,-9 -107,-9 -54,0 -107,9 -53,9 -107,9 z"
         id="path1" /></g><path
       d="m 1128.075,152.77087 q 29.9155,0 55.3155,16.36888 25.4,15.80443 40.64,43.46218 15.2399,27.65776 15.2399,62.08884 0,34.43108 -15.2399,62.65328 -15.24,27.65776 -40.64,44.59108 -25.4,16.36887 -55.3155,16.36887 h -108.9377 l 4.5156,-9.0311 v 129.82211 q 0,12.41777 -7.9023,20.88443 -7.3377,7.90221 -19.7555,7.90221 -11.85333,0 -19.75554,-7.90221 -7.33777,-8.46666 -7.33777,-20.88443 V 181.55752 q 0,-12.41777 8.46665,-20.31999 8.46666,-8.46666 20.31999,-8.46666 z m 0,191.34651 q 14.6755,0 26.5289,-9.59555 12.4177,-9.59555 19.7555,-25.39998 7.9022,-15.80443 7.9022,-34.43108 0,-18.62665 -7.9022,-33.86664 -7.3378,-15.23998 -19.7555,-24.27109 -11.8534,-9.59554 -26.5289,-9.59554 h -110.0666 l 5.6445,-8.46666 v 152.96431 l -5.08,-7.33777 z m 392.2889,-93.13326 q 11.8534,0 19.7556,8.46666 8.4666,7.90222 8.4666,20.31999 v 148.44876 q 0,58.70217 -32.7377,92.00437 -32.7378,32.73775 -92.5688,32.73775 -59.2666,0 -92.0044,-32.73775 -32.1733,-33.3022 -32.1733,-92.00437 V 279.77077 q 0,-12.41777 7.9022,-20.31999 7.9022,-8.46666 20.32,-8.46666 11.8533,0 19.7555,8.46666 8.4667,7.90222 8.4667,20.31999 v 148.44876 q 0,36.68886 16.9333,54.75107 17.4978,18.0622 50.8,18.0622 33.8666,0 51.3644,-18.0622 17.4977,-18.06221 17.4977,-54.75107 V 279.77077 q 0,-12.41777 7.9023,-20.31999 7.9022,-8.46666 20.3199,-8.46666 z m 256.2572,-5.07999 q 39.5111,0 69.9911,19.75554 31.0444,19.75554 49.1066,54.18662 18.0622,33.86664 18.0622,79.02215 0,45.15552 -18.0622,80.15105 -18.0622,34.43108 -48.5422,54.18662 -30.4799,19.75554 -68.8621,19.75554 -21.4489,0 -40.64,-6.77333 -19.1911,-6.77333 -33.8666,-17.49776 -14.6756,-11.28888 -24.2711,-23.70665 -9.0311,-12.41777 -11.2889,-23.1422 l 15.24,-7.33777 V 631.9838 q 0,12.41777 -8.4667,20.31999 -7.9022,8.46666 -19.7555,8.46666 -12.4178,0 -20.32,-8.46666 -7.9022,-7.90222 -7.9022,-20.31999 V 278.64188 q 0,-11.85332 7.9022,-20.31998 7.9022,-8.46666 20.32,-8.46666 11.8533,0 19.7555,8.46666 8.4667,8.46666 8.4667,20.31998 v 38.94663 l -9.0311,-5.07999 q 1.6933,-10.72444 10.7244,-22.01332 9.0311,-11.85332 22.5778,-22.01331 14.1111,-10.15999 31.6088,-16.36888 18.0622,-6.20888 37.2533,-6.20888 z m -6.2088,51.92884 q -27.0934,0 -47.4133,13.54666 -19.7556,12.98221 -31.0445,35.55997 -11.2888,22.57776 -11.2888,51.92884 0,28.78665 11.2888,52.49329 11.2889,23.14221 31.0445,36.68886 20.3199,12.98221 47.4133,12.98221 26.5288,0 46.2844,-12.98221 19.7555,-13.54665 31.0444,-36.68886 11.8533,-23.70664 11.8533,-52.49329 0,-28.78664 -11.8533,-51.3644 -11.2889,-23.1422 -31.0444,-36.12441 -19.7556,-13.54666 -46.2844,-13.54666 z m 573.4752,52.49329 q 0,42.89775 -14.1111,80.15105 -14.1111,36.68886 -40.0755,64.34661 -25.4,27.65775 -60.3955,43.46219 -34.9955,15.23998 -76.7644,15.23998 -41.2044,0 -76.1999,-15.23998 -34.9955,-15.80444 -60.96,-43.46219 -25.3999,-27.65775 -39.511,-64.34661 -13.5467,-37.2533 -13.5467,-80.15105 0,-42.89774 13.5467,-79.5866 14.1111,-37.2533 39.511,-64.91105 25.9645,-27.65776 60.96,-42.89774 34.9955,-15.80444 76.1999,-15.80444 41.7689,0 76.7644,15.80444 34.9955,15.23998 60.3955,42.89774 25.9644,27.65775 40.0755,64.91105 14.1111,36.68886 14.1111,79.5866 z m -60.9599,0 q 0,-41.76885 -16.9333,-75.07104 -16.3689,-33.3022 -45.72,-52.49329 -29.3511,-19.1911 -67.7333,-19.1911 -37.8177,0 -67.1688,19.1911 -29.3511,19.19109 -45.72,52.49329 -16.3689,32.73775 -16.3689,75.07104 0,41.76886 16.3689,75.07105 16.3689,33.3022 45.72,52.49329 29.3511,19.1911 67.1688,19.1911 38.3822,0 67.7333,-19.1911 29.3511,-19.19109 45.72,-52.49329 16.9333,-33.30219 16.9333,-75.07105 z m 251.7417,203.19983 q -40.6399,0 -72.2488,-11.28888 -31.6088,-11.28888 -60.3955,-37.2533 -6.2089,-4.51555 -9.5955,-10.72443 -2.8223,-6.77333 -2.8223,-13.54666 0,-10.72443 7.9023,-19.19109 7.9022,-8.46666 19.7555,-8.46666 9.0311,0 16.9333,6.20888 21.4489,19.75554 44.5911,29.91553 23.7066,10.15999 55.3155,10.15999 22.5778,0 41.2044,-7.33777 19.1911,-7.33777 30.48,-19.75554 11.2889,-12.41777 11.2889,-28.78664 0,-20.31998 -11.8534,-33.3022 -11.2888,-13.54665 -33.3021,-22.01331 -21.4489,-9.0311 -51.9289,-15.23999 -28.2222,-5.07999 -50.8,-14.1111 -22.0133,-9.0311 -37.8177,-22.57776 -15.8044,-14.1111 -24.2711,-33.30219 -8.4666,-19.1911 -8.4666,-44.59107 0,-34.43109 18.0622,-59.26662 18.0622,-24.83554 49.1066,-38.38219 31.0444,-13.54666 69.991,-13.54666 35.56,0 66.6044,11.28888 31.0444,10.72444 50.2355,29.35109 13.5467,11.85332 13.5467,25.39998 0,10.15999 -8.4667,19.19109 -7.9022,8.46666 -18.6266,8.46666 -7.9022,0 -13.5467,-4.51555 -9.0311,-9.59555 -24.2711,-16.93332 -15.24,-7.90221 -32.7377,-12.98221 -16.9333,-5.07999 -32.7378,-5.07999 -25.3999,0 -43.4621,7.33777 -18.0623,6.77332 -27.6578,19.19109 -9.5956,11.85333 -9.5956,28.2222 0,19.1911 10.7245,31.60886 11.2889,12.41777 31.0444,20.31999 19.7555,7.33777 45.1555,13.54665 31.0444,6.77333 55.3155,15.23999 24.8356,8.46666 41.7689,22.01331 16.9333,12.98221 25.9644,32.73775 9.0311,19.75554 9.0311,49.10663 0,33.86664 -19.1911,59.26662 -19.1911,25.39997 -50.7999,39.51107 -31.0445,14.1111 -69.4267,14.1111 z"
       id="text1"
       style="font-weight:600;font-size:564.444px;font-family:Quicksand;-inkscape-font-specification:'Quicksand, Semi-Bold';fill:#ffffff;stroke-width:0.264583"
       aria-label="PupOS" /></g></svg>
