<?xml version="1.0" encoding="UTF-8" standalone="no"?>
<!-- Created with Inkscape (http://www.inkscape.org/) -->

<svg
   width="2346.3357mm"
   height="720mm"
   viewBox="0 0 2346.3357 720"
   version="1.1"
   id="svg1"
   xml:space="preserve"
   xmlns="http://www.w3.org/2000/svg"
   xmlns:svg="http://www.w3.org/2000/svg"><defs
     id="defs1" /><g
     id="layer1"><g
       style="fill:#ffffff"
       id="g1"
       transform="matrix(0.94736842,0,0,0.94736842,-75.789474,791.05263)"><path
         d="m 180,-475 q -42,0 -71,-29 -29,-29 -29,-71 0,-42 29,-71 29,-29 71,-29 42,0 71,29 29,29 29,71 0,42 -29,71 -29,29 -71,29 z m 180,-160 q -42,0 -71,-29 -29,-29 -29,-71 0,-42 29,-71 29,-29 71,-29 42,0 71,29 29,29 29,71 0,42 -29,71 -29,29 -71,29 z m 240,0 q -42,0 -71,-29 -29,-29 -29,-71 0,-42 29,-71 29,-29 71,-29 42,0 71,29 29,29 29,71 0,42 -29,71 -29,29 -71,29 z m 180,160 q -42,0 -71,-29 -29,-29 -29,-71 0,-42 29,-71 29,-29 71,-29 42,0 71,29 29,29 29,71 0,42 -29,71 -29,29 -71,29 z M 266,-75 q -45,0 -75.5,-34.5 Q 160,-144 160,-191 q 0,-52 35.5,-91 35.5,-39 70.5,-77 29,-31 50,-67.5 21,-36.5 50,-68.5 22,-26 51,-43 29,-17 63,-17 34,0 63,16 29,16 51,42 28,32 49.5,69 21.5,37 50.5,69 35,38 70.5,77 35.5,39 35.5,91 0,47 -30.5,81.5 Q 739,-75 694,-75 q -54,0 -107,-9 -53,-9 -107,-9 -54,0 -107,9 -53,9 -107,9 z"
         id="path1" /></g><path
       d="m 1006.4134,140.21941 q 27.1639,0 48.895,13.335 21.7311,13.335 34.0783,36.54779 12.8411,23.21278 12.8411,52.84612 0,29.13945 -12.8411,52.84612 -12.3472,23.70668 -34.0783,37.53557 -21.7311,13.82889 -48.895,13.82889 H 906.1539 l 3.45722,-5.92667 v 124.46003 q 0,8.39612 -5.43277,14.32278 -5.43278,5.92667 -13.8289,5.92667 -8.89,0 -14.32278,-5.92667 -4.93889,-5.92666 -4.93889,-14.32278 V 159.97497 q 0,-8.39612 5.43278,-13.8289 5.92667,-5.92666 14.32278,-5.92666 z m 0,168.91004 q 16.2983,0 28.6455,-8.89001 12.3473,-8.89 19.7556,-24.20056 7.4083,-15.31056 7.4083,-33.09056 0,-18.76778 -7.4083,-33.09056 -7.4083,-14.32279 -19.7556,-22.7189 -12.3472,-8.89 -28.6455,-8.89 H 906.1539 l 3.45722,-5.43278 v 141.25226 l -3.45722,-4.93889 z m 342.2659,-78.52836 q 8.89,0 14.3228,5.92667 5.4328,5.43278 5.4328,13.82889 v 134.8317 q 0,49.88279 -28.1517,77.54058 -27.6578,27.16389 -77.5406,27.16389 -49.3889,0 -77.5405,-27.16389 -27.6578,-27.65779 -27.6578,-77.54058 v -134.8317 q 0,-8.39611 5.4328,-13.82889 5.9266,-5.92667 14.3227,-5.92667 8.89,0 14.3228,5.92667 5.4328,5.43278 5.4328,13.82889 v 134.8317 q 0,33.58446 17.2861,50.87057 17.2861,17.28612 48.4011,17.28612 32.1028,0 48.895,-17.28612 17.2862,-17.28611 17.2862,-50.87057 v -134.8317 q 0,-8.39611 5.4327,-13.82889 5.9267,-5.92667 14.3228,-5.92667 z m 218.7932,-3.95111 q 33.5845,0 60.2545,16.79223 26.67,16.79222 41.9805,46.42557 15.8045,29.63334 15.8045,68.15668 0,38.02945 -15.8045,68.15668 -15.3105,29.63334 -41.9805,46.91946 -26.1761,16.79222 -59.2667,16.79222 -18.2739,0 -34.5722,-5.43278 -15.8045,-5.92666 -29.1395,-14.81667 -12.8411,-9.38389 -21.7311,-20.74333 -8.89,-11.85334 -12.8411,-23.21279 l 10.8655,-6.91444 v 145.69725 q 0,8.39612 -5.4327,14.32278 -5.4328,5.92667 -14.3228,5.92667 -8.3961,0 -14.3228,-5.92667 -5.4328,-5.43277 -5.4328,-14.32278 V 248.87499 q 0,-8.39612 5.4328,-13.82889 5.9267,-5.92667 14.3228,-5.92667 8.89,0 14.3228,5.92667 5.4327,5.43277 5.4327,13.82889 v 43.95612 l -7.4083,-3.95111 q 3.4572,-12.34723 11.8533,-23.70667 8.89,-11.35945 21.2373,-19.75557 12.8411,-8.89 28.1516,-13.82889 15.8045,-4.93889 32.5967,-4.93889 z m -4.445,36.54779 q -24.6944,0 -43.9561,12.34722 -18.7678,12.34723 -29.6333,33.58446 -10.3717,21.23722 -10.3717,48.89501 0,27.16389 10.3717,48.89501 10.8655,21.73112 29.6333,34.07834 19.2617,12.34723 43.9561,12.34723 24.6945,0 43.4622,-12.34723 18.7678,-12.34722 29.6334,-34.07834 10.8655,-21.73112 10.8655,-48.89501 0,-27.65779 -10.8655,-48.89501 -10.8656,-21.23723 -29.6334,-33.58446 -18.7677,-12.34722 -43.4622,-12.34722 z m 500.3097,49.88279 q 0,38.02945 -12.3472,70.62613 -12.3472,32.10278 -34.5722,56.30334 -22.225,24.20057 -52.8462,37.53557 -30.6211,13.335 -66.675,13.335 -36.5478,0 -67.1689,-13.335 -30.1272,-13.335 -52.3522,-37.53557 -22.225,-24.20056 -34.5723,-56.30334 -12.3472,-32.59668 -12.3472,-70.62613 0,-38.52334 12.3472,-70.62613 12.3473,-32.59667 34.5723,-56.30335 22.225,-24.20056 52.3522,-37.53556 30.6211,-13.335 67.1689,-13.335 36.0539,0 66.675,13.335 30.6212,13.335 52.8462,37.53556 22.225,23.70668 34.5722,56.30335 12.3472,32.10279 12.3472,70.62613 z m -42.4744,0 q 0,-40.4989 -16.2984,-71.61391 -15.8044,-31.115 -43.4622,-48.89501 -27.6578,-17.78 -64.2056,-17.78 -36.5478,0 -64.6994,17.78 -27.6578,17.78001 -43.4623,48.89501 -15.8044,31.11501 -15.8044,71.61391 0,40.00501 15.8044,71.6139 15.8045,31.11501 43.4623,48.89502 28.1516,17.78 64.6994,17.78 36.5478,0 64.2056,-17.78 27.6578,-17.78001 43.4622,-48.89502 16.2984,-31.60889 16.2984,-71.6139 z m 208.915,177.80004 q -36.5478,0 -64.2056,-10.86556 -27.6578,-10.86555 -53.34,-34.57223 -3.4572,-3.45722 -5.9267,-7.40833 -1.9755,-4.445 -1.9755,-9.38389 0,-7.90223 5.4328,-13.8289 5.9266,-6.42055 14.3227,-6.42055 6.9145,0 12.3473,5.43278 19.2616,18.76778 41.4866,28.64556 22.7189,9.87778 50.8706,9.87778 21.7311,0 39.0172,-6.91445 17.78,-6.91444 28.1517,-19.26167 10.3717,-12.34722 10.3717,-28.64556 -0.4939,-19.75556 -11.8534,-32.59668 -10.8655,-12.84111 -30.6211,-21.23722 -19.2616,-8.89 -44.9439,-14.81667 -22.7189,-5.43278 -41.9805,-13.33501 -18.7678,-7.90222 -32.5967,-19.26167 -13.8289,-11.85333 -21.7311,-28.15167 -7.4084,-16.79223 -7.4084,-39.01723 0,-28.15168 14.8167,-49.3889 14.8167,-21.23723 40.9928,-32.59668 26.1761,-11.85333 60.2545,-11.85333 30.1272,0 56.7972,9.87778 27.1639,9.87778 43.4622,27.16389 9.8778,9.38389 9.8778,18.27389 0,7.40834 -6.4206,13.8289 -5.9266,5.92667 -13.8288,5.92667 -5.4328,0 -9.8778,-3.95112 -8.3961,-9.38389 -21.2373,-16.79222 -12.8411,-7.40834 -28.1516,-11.85334 -15.3106,-4.445 -30.6211,-4.445 -22.7189,0 -40.0051,6.91445 -17.2861,6.42055 -27.1639,18.76778 -9.3838,11.85333 -9.3838,28.64556 0,18.76778 10.8655,31.11501 10.8656,11.85333 29.1395,19.75556 18.2739,7.40833 40.4989,13.335 24.2005,5.92667 44.45,13.82889 20.7433,7.40834 35.56,18.76779 14.8167,11.35944 22.7189,29.13945 8.3961,17.28611 8.3961,42.96834 0,27.1639 -15.3106,48.40112 -15.3105,21.23723 -41.9805,33.58446 -26.1762,11.85333 -59.2667,12.34722 z"
       id="text1"
       style="font-weight:500;font-size:493.889px;font-family:Quicksand;-inkscape-font-specification:'Quicksand, Medium';fill:#ffffff;stroke-width:0.264583"
       aria-label="PupOS" /></g></svg>
